:FULLY-SPECIFIED
:FORCE-ALL-JOINTS-BE-3DOF
:DEGREES
3058
root -1.65918 16.016 -34.0815 1087.69 -6.5947 1.87551
lfemur -38.7557 6.08545 -2.17119
ltibia 66.5202 0 0
lfoot -0.516816 7.6598 0
ltoes -34.2829 0 0
rfemur -39.4934 -9.0841 29.2816
rtibia 60.9874 0 0
rfoot -20.7744 -31.1327 0
rtoes 1.50243 0 0
lowerback 13.4858 0.129156 -2.23535
upperback -1.17193 -0.0451783 1.79497
thorax -8.8592 0.139873 3.21581
lowerneck 5.27238 -11.002 -13.7153
upperneck -4.96416 -15.1855 11.7175
head -0.358835 -7.70305 5.73934
lclavicle 4.43029e-14 -2.07822e-14 0
lhumerus 31.8283 -37.7181 81.1265
lradius 64.2949 0 0
lwrist -9.38938 0 0
lhand -28.6452 388.915 0
lfingers 7.12502 0 0
lthumb -2.00906 -661.115 0
rclavicle 4.43029e-14 -2.07822e-14 0
rhumerus 45.993 35.9232 -38.7983
rradius 94.1818 0 0
rwrist -49.6903 0 0
rhand -6.01459 -387.636 0
rfingers 7.12502 0 0
rthumb 19.8185 303.352 0
3059
root -1.62281 16.0246 -34.0676 1087.99 -6.82203 1.54557
lfemur -38.7667 6.05936 -2.19269
ltibia 66.2592 0 0
lfoot -0.611103 7.596 0
ltoes -34.3524 0 0
rfemur -39.4102 -9.04044 29.237
rtibia 61.0261 0 0
rfoot -20.8074 -31.1011 0
rtoes 1.34138 0 0
lowerback 13.4793 0.156424 -2.20857
upperback -1.18438 -0.00474491 1.78672
thorax -8.86855 0.157309 3.18158
lowerneck 5.21233 -10.9096 -13.6409
upperneck -4.90801 -15.0568 11.6432
head -0.350227 -7.63747 5.70679
lclavicle 4.40209e-14 -2.05963e-14 0
lhumerus 31.4032 -37.5437 81.2493
lradius 64.4517 0 0
lwrist -9.28691 0 0
lhand -28.646 388.956 0
lfingers 7.12502 0 0
lthumb -2.00981 -661.074 0
rclavicle 4.40209e-14 -2.05963e-14 0
rhumerus 45.2952 35.9219 -39.2594
rradius 94.3286 0 0
rwrist -49.6669 0 0
rhand -6.06025 -387.603 0
rfingers 7.12502 0 0
rthumb 19.7746 303.382 0
3060
root -1.58644 16.0332 -34.0538 1088.3 -7.04586 1.20389
lfemur -38.77 6.02871 -2.21795
ltibia 65.9754 0 0
lfoot -0.720339 7.52649 0
ltoes -34.4304 0 0
rfemur -39.3174 -8.99136 29.1846
rtibia 61.0628 0 0
rfoot -20.8395 -31.0629 0
rtoes 1.16122 0 0
lowerback 13.4705 0.185018 -2.17967
upperback -1.19785 0.0377931 1.77807
thorax -8.87775 0.17563 3.14524
lowerneck 5.14688 -10.8106 -13.561
upperneck -4.84658 -14.9187 11.5631
head -0.340658 -7.56713 5.67178
lclavicle 4.36882e-14 -2.03956e-14 0
lhumerus 30.93 -37.3666 81.3893
lradius 64.6199 0 0
lwrist -9.17508 0 0
lhand -28.647 389.003 0
lfingers 7.12502 0 0
lthumb -2.0108 -661.028 0
rclavicle 4.36882e-14 -2.03956e-14 0
rhumerus 44.5244 35.9292 -39.7678
rradius 94.4918 0 0
rwrist -49.6326 0 0
rhand -6.10853 -387.564 0
rfingers 7.12502 0 0
rthumb 19.7281 303.416 0
3061
root -1.55007 16.0417 -34.0399 1088.61 -7.26122 0.853713
lfemur -38.7638 5.9929 -2.24748
ltibia 65.6682 0 0
lfoot -0.846346 7.45108 0
ltoes -34.5177 0 0
rfemur -39.2141 -8.93636 29.1231
rtibia 61.0963 0 0
rfoot -20.8698 -31.0174 0
rtoes 0.960348 0 0
lowerback 13.4591 0.214756 -2.14863
upperback -1.21235 0.0821972 1.76911
thorax -8.8866 0.194726 3.10692
lowerneck 5.07584 -10.7051 -13.4754
upperneck -4.77963 -14.7715 11.477
head -0.330056 -7.49209 5.63433
lclavicle 4.3298e-14 -2.01801e-14 0
lhumerus 30.405 -37.1895 81.5485
lradius 64.7994 0 0
lwrist -9.05353 0 0
lhand -28.6484 389.055 0
lfingers 7.12502 0 0
lthumb -2.01208 -660.976 0
rclavicle 4.3298e-14 -2.01801e-14 0
rhumerus 43.676 35.947 -40.3264
rradius 94.6727 0 0
rwrist -49.5853 0 0
rhand -6.15921 -387.52 0
rfingers 7.12502 0 0
rthumb 19.6793 303.456 0
3062
root -1.51371 16.0503 -34.026 1088.92 -7.46311 0.498276
lfemur -38.7459 5.95133 -2.28176
ltibia 65.3369 0 0
lfoot -0.99095 7.36958 0
ltoes -34.615 0 0
rfemur -39.0996 -8.87497 29.0517
rtibia 61.1253 0 0
rfoot -20.8975 -30.9634 0
rtoes 0.73716 0 0
lowerback 13.4448 0.245455 -2.11542
upperback -1.2279 0.128229 1.75987
thorax -8.8949 0.214491 3.06672
lowerneck 4.99904 -10.5933 -13.3842
upperneck -4.70695 -14.6152 11.385
head -0.318351 -7.41241 5.59444
lclavicle 4.28433e-14 -1.99496e-14 0
lhumerus 29.8245 -37.0149 81.7287
lradius 64.9901 0 0
lwrist -8.92193 0 0
lhand -28.65 389.112 0
lfingers 7.12502 0 0
lthumb -2.01368 -660.918 0
rclavicle 4.28433e-14 -1.99496e-14 0
rhumerus 42.7454 35.9775 -40.938
rradius 94.8725 0 0
rwrist -49.5227 0 0
rhand -6.21207 -387.47 0
rfingers 7.12502 0 0
rthumb 19.6284 303.502 0
3063
root -1.47734 16.0589 -34.0122 1089.23 -7.64658 0.140813
lfemur -38.7144 5.90339 -2.32132
ltibia 64.9808 0 0
lfoot -1.15598 7.2818 0
ltoes -34.7231 0 0
rfemur -38.9731 -8.80668 28.9691
rtibia 61.1487 0 0
rfoot -20.9216 -30.9002 0
rtoes 0.490064 0 0
lowerback 13.4271 0.276932 -2.08004
upperback -1.24452 0.17565 1.75043
thorax -8.90244 0.234815 3.02479
lowerneck 4.91628 -10.4751 -13.2874
upperneck -4.62828 -14.4501 11.287
head -0.305472 -7.32816 5.55213
lclavicle 4.23173e-14 -1.97041e-14 0
lhumerus 29.1849 -36.8454 81.9317
lradius 65.1917 0 0
lwrist -8.77991 0 0
lhand -28.6521 389.177 0
lfingers 7.12502 0 0
lthumb -2.01565 -660.853 0
rclavicle 4.23173e-14 -1.97041e-14 0
rhumerus 41.7281 36.0227 -41.6053
rradius 95.0923 0 0
rwrist -49.4428 0 0
rhand -6.2669 -387.413 0
rfingers 7.12502 0 0
rthumb 19.5756 303.554 0
3064
root -1.44097 16.0675 -33.9983 1089.54 -7.80664 -0.21544
lfemur -38.6673 5.84847 -2.36663
ltibia 64.5994 0 0
lfoot -1.34325 7.18756 0
ltoes -34.8426 0 0
rfemur -38.8338 -8.73101 28.8744
rtibia 61.1653 0 0
rfoot -20.9414 -30.8266 0
rtoes 0.217464 0 0
lowerback 13.4055 0.309004 -2.04247
upperback -1.26222 0.224222 1.74085
thorax -8.90902 0.255591 2.98124
lowerneck 4.82738 -10.3509 -13.1851
upperneck -4.54342 -14.2762 11.183
head -0.291348 -7.2394 5.5074
lclavicle 4.17131e-14 -1.94433e-14 0
lhumerus 28.4824 -36.6834 82.1594
lradius 65.4042 0 0
lwrist -8.62713 0 0
lhand -28.6545 389.248 0
lfingers 7.12502 0 0
lthumb -2.01804 -660.782 0
rclavicle 4.17131e-14 -1.94433e-14 0
rhumerus 40.6194 36.0846 -42.3312
rradius 95.3335 0 0
rwrist -49.3434 0 0
rhand -6.32349 -387.349 0
rfingers 7.12502 0 0
rthumb 19.5212 303.614 0
3065
root -1.4046 16.076 -33.9844 1089.84 -7.93832 -0.567249
lfemur -38.6025 5.78598 -2.41821
ltibia 64.192 0 0
lfoot -1.55459 7.08665 0
ltoes -34.9745 0 0
rfemur -38.681 -8.64746 28.7665
rtibia 61.174 0 0
rfoot -20.956 -30.7418 0
rtoes -0.0822358 0 0
lowerback 13.3798 0.34149 -2.00269
upperback -1.28101 0.273707 1.73117
thorax -8.91443 0.276709 2.9362
lowerneck 4.73217 -10.2206 -13.0772
upperneck -4.45213 -14.0937 11.0729
head -0.275907 -7.1462 5.46027
lclavicle 4.10239e-14 -1.91673e-14 0
lhumerus 27.7136 -36.5316 82.4137
lradius 65.6274 0 0
lwrist -8.46324 0 0
lhand -28.6575 389.327 0
lfingers 7.12502 0 0
lthumb -2.02088 -660.703 0
rclavicle 4.10239e-14 -1.91673e-14 0
rhumerus 39.4148 36.1653 -43.1185
rradius 95.5973 0 0
rwrist -49.2223 0 0
rhand -6.38162 -387.277 0
rfingers 7.12502 0 0
rthumb 19.4652 303.681 0
3066
root -1.36824 16.0846 -33.9706 1090.12 -8.03664 -0.911376
lfemur -38.5181 5.7153 -2.47655
ltibia 63.7579 0 0
lfoot -1.79182 6.9789 0
ltoes -35.1193 0 0
rfemur -38.5138 -8.55556 28.6443
rtibia 61.1734 0 0
rfoot -20.9647 -30.6448 0
rtoes -0.410631 0 0
lowerback 13.3495 0.374205 -1.96068
upperback -1.30091 0.323865 1.72147
thorax -8.91846 0.298062 2.88979
lowerneck 4.63044 -10.0845 -12.9638
upperneck -4.35417 -13.9027 10.9567
head -0.25908 -7.04863 5.41075
lclavicle 4.02427e-14 -1.88758e-14 0
lhumerus 26.8746 -36.3926 82.6963
lradius 65.8611 0 0
lwrist -8.28788 0 0
lhand -28.6609 389.414 0
lfingers 7.12502 0 0
lthumb -2.02422 -660.617 0
rclavicle 4.02427e-14 -1.88758e-14 0
rhumerus 38.1098 36.2669 -43.97
rradius 95.8847 0 0
rwrist -49.0773 0 0
rhand -6.44108 -387.197 0
rfingers 7.12502 0 0
rthumb 19.408 303.756 0
3067
root -1.33187 16.0932 -33.9567 1090.39 -8.09663 -1.24459
lfemur -38.412 5.63583 -2.54216
ltibia 63.2965 0 0
lfoot -2.05677 6.86411 0
ltoes -35.2779 0 0
rfemur -38.3316 -8.45481 28.5068
rtibia 61.1625 0 0
rfoot -20.9665 -30.5347 0
rtoes -0.769319 0 0
lowerback 13.3143 0.406967 -1.91644
upperback -1.32194 0.374459 1.7118
thorax -8.92092 0.319542 2.84213
lowerneck 4.52202 -9.94254 -12.8449
upperneck -4.24933 -13.7034 10.8343
head -0.240794 -6.94675 5.35884
lclavicle 3.93628e-14 -1.85689e-14 0
lhumerus 25.9618 -36.2688 83.0092
lradius 66.1052 0 0
lwrist -8.10072 0 0
lhand -28.6649 389.509 0
lfingers 7.12502 0 0
lthumb -2.0281 -660.521 0
rclavicle 3.93628e-14 -1.85689e-14 0
rhumerus 36.6997 36.3913 -44.8885
rradius 96.1972 0 0
rwrist -48.9064 0 0
rhand -6.50166 -387.108 0
rfingers 7.12502 0 0
rthumb 19.3497 303.84 0
3068
root -1.2955 16.1018 -33.9429 1090.64 -8.11331 -1.56365
lfemur -38.2823 5.54698 -2.61553
ltibia 62.8072 0 0
lfoot -2.35127 6.74209 0
ltoes -35.4511 0 0
rfemur -38.1334 -8.34471 28.3529
rtibia 61.1399 0 0
rfoot -20.9606 -30.4104 0
rtoes -1.1599 0 0
lowerback 13.2736 0.439594 -1.86993
upperback -1.34411 0.425251 1.70222
thorax -8.9216 0.341039 2.79335
lowerneck 4.40672 -9.79495 -12.7205
upperneck -4.13737 -13.4959 10.7058
head -0.22098 -6.84062 5.30457
lclavicle 3.83771e-14 -1.82463e-14 0
lhumerus 24.9716 -36.1628 83.3542
lradius 66.3596 0 0
lwrist -7.90139 0 0
lhand -28.6696 389.613 0
lfingers 7.12502 0 0
lthumb -2.03256 -660.417 0
rclavicle 3.83771e-14 -1.82463e-14 0
rhumerus 35.1799 36.5406 -45.8769
rradius 96.5358 0 0
rwrist -48.7074 0 0
rhand -6.56313 -387.009 0
rfingers 7.12502 0 0
rthumb 19.2905 303.933 0
3069
root -1.25913 16.1103 -33.929 1090.87 -8.08169 -1.86532
lfemur -38.1268 5.44812 -2.69717
ltibia 62.2893 0 0
lfoot -2.67713 6.61265 0
ltoes -35.6395 0 0
rfemur -37.9186 -8.22479 28.1815
rtibia 61.1047 0 0
rfoot -20.9463 -30.271 0
rtoes -1.58395 0 0
lowerback 13.2271 0.471903 -1.82116
upperback -1.36743 0.476001 1.69279
thorax -8.9203 0.362446 2.74357
lowerneck 4.28436 -9.64182 -12.5907
upperneck -4.01806 -13.2803 10.571
head -0.199565 -6.73031 5.24794
lclavicle 3.72789e-14 -1.7908e-14 0
lhumerus 23.9003 -36.0772 83.7332
lradius 66.624 0 0
lwrist -7.68955 0 0
lhand -28.6748 389.726 0
lfingers 7.12502 0 0
lthumb -2.03766 -660.304 0
rclavicle 3.72789e-14 -1.7908e-14 0
rhumerus 33.5459 36.717 -46.9379
rradius 96.9019 0 0
rwrist -48.478 0 0
rhand -6.6253 -386.901 0
rfingers 7.12502 0 0
rthumb 19.2307 304.037 0
3070
root -1.22277 16.1189 -33.9151 1091.07 -7.99682 -2.14637
lfemur -37.9438 5.33867 -2.78757
ltibia 61.7421 0 0
lfoot -3.03619 6.4756 0
ltoes -35.8439 0 0
rfemur -37.6863 -8.09454 27.9917
rtibia 61.0555 0 0
rfoot -20.9225 -30.1157 0
rtoes -2.04309 0 0
lowerback 13.1745 0.50371 -1.7701
upperback -1.39192 0.526471 1.68358
thorax -8.9168 0.383655 2.69292
lowerneck 4.15476 -9.48327 -12.4554
upperneck -3.89117 -13.0568 10.43
head -0.176479 -6.61588 5.18895
lclavicle 3.60613e-14 -1.75539e-14 0
lhumerus 22.7442 -36.0146 84.148
lradius 66.8985 0 0
lwrist -7.46484 0 0
lhand -28.6808 389.849 0
lfingers 7.12502 0 0
lthumb -2.04343 -660.181 0
rclavicle 3.60613e-14 -1.75539e-14 0
rhumerus 31.7931 36.9223 -48.0743
rradius 97.2966 0 0
rwrist -48.2163 0 0
rhand -6.68794 -386.781 0
rfingers 7.12502 0 0
rthumb 19.1704 304.151 0
3071
root -1.1864 16.1275 -33.9013 1091.24 -7.85371 -2.40356
lfemur -37.731 5.21801 -2.88723
ltibia 61.165 0 0
lfoot -3.43026 6.33076 0
ltoes -36.065 0 0
rfemur -37.4359 -7.95348 27.7822
rtibia 60.9911 0 0
rfoot -20.8886 -29.9433 0
rtoes -2.53891 0 0
lowerback 13.1153 0.534833 -1.71673
upperback -1.41759 0.576423 1.67463
thorax -8.91091 0.404557 2.64151
lowerneck 4.01772 -9.31942 -12.3146
upperneck -3.75648 -12.8256 10.2827
head -0.151652 -6.49741 5.12763
lclavicle 3.47174e-14 -1.71838e-14 0
lhumerus 21.4997 -35.9775 84.6005
lradius 67.1827 0 0
lwrist -7.22692 0 0
lhand -28.6875 389.982 0
lfingers 7.12502 0 0
lthumb -2.04991 -660.048 0
rclavicle 3.47174e-14 -1.71838e-14 0
rhumerus 29.9168 37.1587 -49.289
rradius 97.7212 0 0
rwrist -47.9199 0 0
rhand -6.75084 -386.651 0
rfingers 7.12502 0 0
rthumb 19.1099 304.276 0
